<svg width="640" height="400" viewBox="0 0 640 400" fill="none" xmlns="http://www.w3.org/2000/svg">
  <rect width="640" height="400" rx="36" fill="#F8FAFC"/>
  <rect x="82" y="88" width="210" height="226" rx="28" fill="#FFFFFF"/>
  <rect x="112" y="118" width="150" height="84" rx="18" fill="#DBEAFE"/>
  <rect x="134" y="140" width="102" height="14" rx="7" fill="#2563EB"/>
  <rect x="134" y="166" width="82" height="12" rx="6" fill="#60A5FA"/>
  <rect x="112" y="230" width="150" height="16" rx="8" fill="#E2E8F0"/>
  <rect x="112" y="258" width="118" height="12" rx="6" fill="#CBD5E1"/>
  <circle cx="450" cy="158" r="64" fill="#BFDBFE"/>
  <circle cx="450" cy="150" r="26" fill="#FFFFFF"/>
  <path d="M402 254C408 224 428 206 450 206C472 206 494 224 500 254H402Z" fill="#2563EB"/>
  <rect x="372" y="286" width="156" height="16" rx="8" fill="#93C5FD"/>
</svg>
